<mxfile host="65bd71144e">
    <diagram id="szCzmyRqpQEI5pvZYMfo" name="Page-1">
        <mxGraphModel dx="629" dy="482" grid="1" gridSize="10" guides="1" tooltips="1" connect="1" arrows="1" fold="1" page="1" pageScale="1" pageWidth="850" pageHeight="1100" math="0" shadow="0">
            <root>
                <mxCell id="0"/>
                <mxCell id="1" parent="0"/>
                <UserObject label="page_cache_sync_readahead.md" link="https://github.com/sigmanature/learn_os_note/blob/main/6.13.1%E5%86%85%E6%A0%B8%E6%96%87%E6%A1%A3%E6%B3%A8%E9%87%8A/include/linux/pagemap.h/page_cache_sync_readahead.md" id="3">
                    <mxCell style="fontColor=#0000EE;fontStyle=4;rounded=1;overflow=hidden;spacing=10;" vertex="1" parent="1">
                        <mxGeometry x="120" y="220" width="220" height="40" as="geometry"/>
                    </mxCell>
                </UserObject>
            </root>
        </mxGraphModel>
    </diagram>
</mxfile>